{
  "accessors": [
    {
      "bufferView": 2,
      "componentType": 5126,
      "count": 1226,
      "max": [
        0.8795599937438965,
        0.2651599943637848,
        0.9255800247192383
      ],
      "min": [
        -0.4135800004005432,
        -0.26416000723838806,
        -0.0004199999966658652
      ],
      "type": "VEC3"
    },
    {
      "bufferView": 2,
      "byteOffset": 14712,
      "componentType": 5126,
      "count": 1226,
      "max": [
        0.9999944567680359,
        0.9999944567680359,
        1.0
      ],
      "min": [
        -0.9999944567680359,
        -0.9999944567680359,
        -1.0
      ],
      "type": "VEC3"
    },
    {
      "bufferView": 1,
      "componentType": 5126,
      "count": 1226,
      "max": [
        0.9872000217437744,
        0.9965199828147888
      ],
      "min": [
        0.002529999939724803,
        -0.0004400000034365803
      ],
      "type": "VEC2"
    },
    {
      "bufferView": 0,
      "componentType": 5125,
      "count": 6036,
      "type": "SCALAR"
    },
    {
      "bufferView": 2,
      "byteOffset": 29424,
      "componentType": 5126,
      "count": 98,
      "max": [
        1.0,
        1.0,
        0.0
      ],
      "min": [
        -1.0,
        -1.0,
        -0.30000001192092896
      ],
      "type": "VEC3"
    },
    {
      "bufferView": 2,
      "byteOffset": 30600,
      "componentType": 5126,
      "count": 98,
      "max": [
        0.9807855486869812,
        0.9807855486869812,
        1.0
      ],
      "min": [
        -0.9807855486869812,
        -0.9807855486869812,
        -1.0
      ],
      "type": "VEC3"
    },
    {
      "bufferView": 1,
      "byteOffset": 9808,
      "componentType": 5126,
      "count": 98,
      "max": [
        0.9926300048828125,
        0.9835100173950195
      ],
      "min": [
        0.006649999879300594,
        0.01631000079214573
      ],
      "type": "VEC2"
    },
    {
      "bufferView": 0,
      "byteOffset": 24144,
      "componentType": 5125,
      "count": 192,
      "type": "SCALAR"
    }
  ],
  "asset": {
    "extras": {
      "author": "Frewill (https://sketchfab.com/firewill)",
      "license": "CC-BY-SA-4.0 (http://creativecommons.org/licenses/by-sa/4.0/)",
      "source": "https://sketchfab.com/3d-models/watering-can-6a013499dced4847900edfa5d16f47dd",
      "title": "Watering can"
    },
    "generator": "Sketchfab-12.68.0",
    "version": "2.0"
  },
  "bufferViews": [
    {
      "buffer": 0,
      "byteLength": 24912,
      "name": "floatBufferViews",
      "target": 34963
    },
    {
      "buffer": 0,
      "byteLength": 10592,
      "byteOffset": 24912,
      "byteStride": 8,
      "name": "floatBufferViews",
      "target": 34962
    },
    {
      "buffer": 0,
      "byteLength": 31776,
      "byteOffset": 35504,
      "byteStride": 12,
      "name": "floatBufferViews",
      "target": 34962
    }
  ],
  "buffers": [
    {
      "byteLength": 67280,
      "uri": "scene.bin"
    }
  ],
  "extensionsUsed": [
    "KHR_materials_unlit"
  ],
  "images": [
    {
      "uri": "textures/ground_baseColor.png"
    },
    {
      "uri": "textures/watercan_baseColor.png"
    }
  ],
  "materials": [
    {
      "extensions": {
        "KHR_materials_unlit": {}
      },
      "name": "ground",
      "pbrMetallicRoughness": {
        "baseColorTexture": {
          "index": 0
        },
        "metallicFactor": 0.0
      }
    },
    {
      "doubleSided": true,
      "extensions": {
        "KHR_materials_unlit": {}
      },
      "name": "watercan",
      "pbrMetallicRoughness": {
        "baseColorTexture": {
          "index": 1
        },
        "metallicFactor": 0.0
      }
    }
  ],
  "meshes": [
    {
      "name": "watering_can_0",
      "primitives": [
        {
          "attributes": {
            "NORMAL": 1,
            "POSITION": 0,
            "TEXCOORD_0": 2
          },
          "indices": 3,
          "material": 1,
          "mode": 4
        }
      ]
    },
    {
      "name": "Circle_0",
      "primitives": [
        {
          "attributes": {
            "NORMAL": 5,
            "POSITION": 4,
            "TEXCOORD_0": 6
          },
          "indices": 7,
          "material": 0,
          "mode": 4
        }
      ]
    }
  ],
  "nodes": [
    {
      "children": [
        1
      ],
      "matrix": [
        0.5,
        0.0,
        0.0,
        0.0,
        0.0,
        1.914284336104021e-16,
        -0.5,
        0.0,
        0.0,
        0.5,
        1.914284336104021e-16,
        0.0,
        0.0,
        -4.8460459909259296e-33,
        2.1824650918954303e-17,
        1.0
      ],
      "name": "Sketchfab_model"
    },
    {
      "children": [
        2,
        5
      ],
      "name": "Root"
    },
    {
      "children": [
        3
      ],
      "name": "root"
    },
    {
      "children": [
        4
      ],
      "name": "watering_can"
    },
    {
      "mesh": 0,
      "name": "watering_can_0"
    },
    {
      "children": [
        6
      ],
      "name": "Circle"
    },
    {
      "mesh": 1,
      "name": "Circle_0"
    }
  ],
  "samplers": [
    {
      "magFilter": 9729,
      "minFilter": 9987,
      "wrapS": 10497,
      "wrapT": 10497
    }
  ],
  "scene": 0,
  "scenes": [
    {
      "name": "Sketchfab_Scene",
      "nodes": [
        0
      ]
    }
  ],
  "textures": [
    {
      "sampler": 0,
      "source": 0
    },
    {
      "sampler": 0,
      "source": 1
    }
  ]
}
