{
	"asset":{
		"generator":"Khronos glTF Blender I/O v4.0.44",
		"version":"2.0"
	},
	"scene":0,
	"scenes":[
		{
			"name":"Scene",
			"nodes":[
				0,
				1,
				2,
				3,
				4,
				5,
				6,
				7
			]
		}
	],
	"nodes":[
		{
			"mesh":0,
			"name":"Cylinder.003",
			"rotation":[
				-0.5,
				0.5,
				0.4999999403953552,
				0.5000000596046448
			],
			"scale":[
				0.035168085247278214,
				0.01641448773443699,
				0.035168085247278214
			],
			"translation":[
				-0.9887815713882446,
				3.1960816383361816,
				-0.009350791573524475
			]
		},
		{
			"mesh":1,
			"name":"Cylinder.001",
			"rotation":[
				-0.5,
				0.5,
				0.4999999403953552,
				0.5000000596046448
			],
			"scale":[
				0.035168085247278214,
				0.01641448773443699,
				0.035168085247278214
			],
			"translation":[
				0.9916985034942627,
				3.1960816383361816,
				-0.009350791573524475
			]
		},
		{
			"mesh":2,
			"name":"back",
			"translation":[
				0,
				1,
				0
			]
		},
		{
			"mesh":3,
			"name":"front",
			"translation":[
				-0.09852242469787598,
				2.118335723876953,
				0.8567120432853699
			]
		},
		{
			"mesh":4,
			"name":"bmoleft",
			"rotation":[
				0.7071068286895752,
				-0.7071068286895752,
				0,
				5.338509012631221e-08
			],
			"scale":[
				0.6631789207458496,
				0.7611249685287476,
				0.7611249685287476
			],
			"translation":[
				-0.003063201904296875,
				2.397826910018921,
				0.01127701997756958
			]
		},
		{
			"mesh":5,
			"name":"legs",
			"rotation":[
				0.70710688829422,
				-0.7071066498756409,
				0,
				3.0908619663705394e-08
			],
			"scale":[
				0.475982129573822,
				0.475982129573822,
				0.475982129573822
			],
			"translation":[
				-0.5,
				0.6000000238418579,
				0
			]
		},
		{
			"mesh":6,
			"name":"armpit",
			"translation":[
				0,
				0.7355341911315918,
				0
			]
		},
		{
			"mesh":7,
			"name":"face",
			"translation":[
				-0.09852242469787598,
				2.118335723876953,
				0.8567120432853699
			]
		}
	],
	"materials":[
		{
			"doubleSided":true,
			"name":"Black ",
			"pbrMetallicRoughness":{
				"baseColorFactor":[
					0,
					0,
					0,
					1
				],
				"metallicFactor":0,
				"roughnessFactor":0.5
			}
		},
		{
			"doubleSided":true,
			"name":"BMO main",
			"pbrMetallicRoughness":{
				"baseColorFactor":[
					0.15295106172561646,
					0.7083450555801392,
					0.545685350894928,
					1
				],
				"metallicFactor":0.25984251499176025,
				"roughnessFactor":0.26377955079078674
			}
		},
		{
			"doubleSided":true,
			"name":"button1",
			"pbrMetallicRoughness":{
				"baseColorFactor":[
					0.012708581984043121,
					0.004773897118866444,
					0.8001810312271118,
					1
				],
				"metallicFactor":0,
				"roughnessFactor":0.5
			}
		},
		{
			"doubleSided":true,
			"name":"button2",
			"pbrMetallicRoughness":{
				"baseColorFactor":[
					0,
					0.8010924458503723,
					0.0008183731115423143,
					1
				],
				"metallicFactor":0,
				"roughnessFactor":0.5
			}
		},
		{
			"doubleSided":true,
			"name":"button3",
			"pbrMetallicRoughness":{
				"baseColorFactor":[
					0.8003778457641602,
					0.02191249094903469,
					0.01012258417904377,
					1
				],
				"metallicFactor":0,
				"roughnessFactor":0.5
			}
		},
		{
			"doubleSided":true,
			"name":"button4",
			"pbrMetallicRoughness":{
				"baseColorFactor":[
					0,
					0.7264720797538757,
					1,
					1
				],
				"metallicFactor":0.6485148668289185,
				"roughnessFactor":0.7574257254600525
			}
		},
		{
			"doubleSided":true,
			"name":"button5",
			"pbrMetallicRoughness":{
				"baseColorFactor":[
					0.8003778457641602,
					0.7716020941734314,
					0,
					1
				],
				"metallicFactor":0,
				"roughnessFactor":0.5
			}
		},
		{
			"doubleSided":true,
			"name":"BMO text",
			"pbrMetallicRoughness":{
				"baseColorFactor":[
					0,
					0,
					0,
					1
				],
				"metallicFactor":0,
				"roughnessFactor":0.5
			}
		},
		{
			"doubleSided":true,
			"name":"BMO hands",
			"pbrMetallicRoughness":{
				"baseColorFactor":[
					0.18569731712341309,
					0.58106529712677,
					0.6450688242912292,
					1
				]
			}
		},
		{
			"doubleSided":true,
			"emissiveFactor":[
				0,
				0.36240580306018444,
				0.3999999761581421
			],
			"name":"face",
			"pbrMetallicRoughness":{
				"baseColorTexture":{
					"index":0
				},
				"metallicFactor":0.2545454502105713,
				"roughnessFactor":0.6318181753158569
			}
		}
	],
	"meshes":[
		{
			"name":"Cylinder.003",
			"primitives":[
				{
					"attributes":{
						"POSITION":0,
						"NORMAL":1,
						"TEXCOORD_0":2
					},
					"indices":3,
					"material":0
				}
			]
		},
		{
			"name":"Cylinder.008",
			"primitives":[
				{
					"attributes":{
						"POSITION":4,
						"NORMAL":5,
						"TEXCOORD_0":6
					},
					"indices":3,
					"material":0
				}
			]
		},
		{
			"name":"Cube.001",
			"primitives":[
				{
					"attributes":{
						"POSITION":7,
						"NORMAL":8,
						"TEXCOORD_0":9
					},
					"indices":10,
					"material":1
				}
			]
		},
		{
			"name":"Cube.002",
			"primitives":[
				{
					"attributes":{
						"POSITION":11,
						"NORMAL":12,
						"TEXCOORD_0":13
					},
					"indices":14,
					"material":1
				},
				{
					"attributes":{
						"POSITION":15,
						"NORMAL":16,
						"TEXCOORD_0":17
					},
					"indices":18,
					"material":0
				},
				{
					"attributes":{
						"POSITION":19,
						"NORMAL":20,
						"TEXCOORD_0":21
					},
					"indices":22,
					"material":2
				},
				{
					"attributes":{
						"POSITION":23,
						"NORMAL":24,
						"TEXCOORD_0":25
					},
					"indices":26,
					"material":3
				},
				{
					"attributes":{
						"POSITION":27,
						"NORMAL":28,
						"TEXCOORD_0":29
					},
					"indices":30,
					"material":4
				},
				{
					"attributes":{
						"POSITION":31,
						"NORMAL":32,
						"TEXCOORD_0":33
					},
					"indices":34,
					"material":5
				},
				{
					"attributes":{
						"POSITION":35,
						"NORMAL":36,
						"TEXCOORD_0":37
					},
					"indices":38,
					"material":6
				}
			]
		},
		{
			"name":"Text",
			"primitives":[
				{
					"attributes":{
						"POSITION":39,
						"NORMAL":40
					},
					"indices":41,
					"material":7
				}
			]
		},
		{
			"name":"BezierCurve.001",
			"primitives":[
				{
					"attributes":{
						"POSITION":42,
						"NORMAL":43,
						"TEXCOORD_0":44
					},
					"indices":45,
					"material":8
				}
			]
		},
		{
			"name":"Cube.003",
			"primitives":[
				{
					"attributes":{
						"POSITION":46,
						"NORMAL":47,
						"TEXCOORD_0":48
					},
					"indices":49,
					"material":0
				}
			]
		},
		{
			"name":"Cube.011",
			"primitives":[
				{
					"attributes":{
						"POSITION":50,
						"NORMAL":51,
						"TEXCOORD_0":52
					},
					"indices":53,
					"material":9
				}
			]
		}
	],
	"textures":[
		{
			"sampler":0,
			"source":0
		}
	],
	"images":[
		{
			"mimeType":"image/png",
			"name":"bmo",
			"uri":"bmo.png"
		}
	],
	"accessors":[
		{
			"bufferView":0,
			"componentType":5126,
			"count":252,
			"max":[
				4.718671798706055,
				1,
				4.31431770324707
			],
			"min":[
				-4.709722995758057,
				-1,
				-4.303495407104492
			],
			"type":"VEC3"
		},
		{
			"bufferView":1,
			"componentType":5126,
			"count":252,
			"type":"VEC3"
		},
		{
			"bufferView":2,
			"componentType":5126,
			"count":252,
			"type":"VEC2"
		},
		{
			"bufferView":3,
			"componentType":5123,
			"count":420,
			"type":"SCALAR"
		},
		{
			"bufferView":4,
			"componentType":5126,
			"count":252,
			"max":[
				4.718671798706055,
				1,
				4.31431770324707
			],
			"min":[
				-4.709722995758057,
				-1,
				-4.303495407104492
			],
			"type":"VEC3"
		},
		{
			"bufferView":5,
			"componentType":5126,
			"count":252,
			"type":"VEC3"
		},
		{
			"bufferView":6,
			"componentType":5126,
			"count":252,
			"type":"VEC2"
		},
		{
			"bufferView":7,
			"componentType":5126,
			"count":754,
			"max":[
				1,
				2.5999999046325684,
				0.699999988079071
			],
			"min":[
				-1,
				0,
				-0.8999999761581421
			],
			"type":"VEC3"
		},
		{
			"bufferView":8,
			"componentType":5126,
			"count":754,
			"type":"VEC3"
		},
		{
			"bufferView":9,
			"componentType":5126,
			"count":754,
			"type":"VEC2"
		},
		{
			"bufferView":10,
			"componentType":5123,
			"count":3096,
			"type":"SCALAR"
		},
		{
			"bufferView":11,
			"componentType":5126,
			"count":836,
			"max":[
				1.098522424697876,
				1.4816644191741943,
				0.042511045932769775
			],
			"min":[
				-0.901477575302124,
				-1.1183357238769531,
				-0.1574888825416565
			],
			"type":"VEC3"
		},
		{
			"bufferView":12,
			"componentType":5126,
			"count":836,
			"type":"VEC3"
		},
		{
			"bufferView":13,
			"componentType":5126,
			"count":836,
			"type":"VEC2"
		},
		{
			"bufferView":14,
			"componentType":5123,
			"count":2940,
			"type":"SCALAR"
		},
		{
			"bufferView":15,
			"componentType":5126,
			"count":42,
			"max":[
				0.19586926698684692,
				0.20851626992225647,
				0.02530384063720703
			],
			"min":[
				-0.606907069683075,
				0.05930391699075699,
				0.02530384063720703
			],
			"type":"VEC3"
		},
		{
			"bufferView":16,
			"componentType":5126,
			"count":42,
			"type":"VEC3"
		},
		{
			"bufferView":17,
			"componentType":5126,
			"count":42,
			"type":"VEC2"
		},
		{
			"bufferView":18,
			"componentType":5123,
			"count":120,
			"type":"SCALAR"
		},
		{
			"bufferView":19,
			"componentType":5126,
			"count":310,
			"max":[
				0.4665563404560089,
				0.17419496178627014,
				0.06712687015533447
			],
			"min":[
				-0.5310693383216858,
				-0.8716517090797424,
				-0.015544354915618896
			],
			"type":"VEC3"
		},
		{
			"bufferView":20,
			"componentType":5126,
			"count":310,
			"type":"VEC3"
		},
		{
			"bufferView":21,
			"componentType":5126,
			"count":310,
			"type":"VEC2"
		},
		{
			"bufferView":22,
			"componentType":5123,
			"count":780,
			"type":"SCALAR"
		},
		{
			"bufferView":23,
			"componentType":5126,
			"count":106,
			"max":[
				0.68674635887146,
				-0.48514363169670105,
				0.09385418891906738
			],
			"min":[
				0.5804442167282104,
				-0.5914456248283386,
				-0.01244819164276123
			],
			"type":"VEC3"
		},
		{
			"bufferView":24,
			"componentType":5126,
			"count":106,
			"type":"VEC3"
		},
		{
			"bufferView":25,
			"componentType":5126,
			"count":106,
			"type":"VEC2"
		},
		{
			"bufferView":26,
			"componentType":5123,
			"count":276,
			"type":"SCALAR"
		},
		{
			"bufferView":27,
			"componentType":5126,
			"count":107,
			"max":[
				0.49085551500320435,
				-0.5964017510414124,
				0.09418821334838867
			],
			"min":[
				0.2666407525539398,
				-0.8206163644790649,
				-0.13002711534500122
			],
			"type":"VEC3"
		},
		{
			"bufferView":28,
			"componentType":5126,
			"count":107,
			"type":"VEC3"
		},
		{
			"bufferView":29,
			"componentType":5126,
			"count":107,
			"type":"VEC2"
		},
		{
			"bufferView":30,
			"componentType":5123,
			"count":276,
			"type":"SCALAR"
		},
		{
			"bufferView":31,
			"componentType":5126,
			"count":30,
			"max":[
				0.40848052501678467,
				-0.3723633587360382,
				0.09263432025909424
			],
			"min":[
				0.23485010862350464,
				-0.5227316617965698,
				-0.0076111555099487305
			],
			"type":"VEC3"
		},
		{
			"bufferView":32,
			"componentType":5126,
			"count":30,
			"type":"VEC3"
		},
		{
			"bufferView":33,
			"componentType":5126,
			"count":30,
			"type":"VEC2"
		},
		{
			"bufferView":34,
			"componentType":5123,
			"count":42,
			"type":"SCALAR"
		},
		{
			"bufferView":35,
			"componentType":5126,
			"count":221,
			"max":[
				-0.2960951328277588,
				-0.3026539385318756,
				0.09068524837493896
			],
			"min":[
				-0.5769355297088623,
				-0.5834941864013672,
				0.003010571002960205
			],
			"type":"VEC3"
		},
		{
			"bufferView":36,
			"componentType":5126,
			"count":221,
			"type":"VEC3"
		},
		{
			"bufferView":37,
			"componentType":5126,
			"count":221,
			"type":"VEC2"
		},
		{
			"bufferView":38,
			"componentType":5123,
			"count":552,
			"type":"SCALAR"
		},
		{
			"bufferView":39,
			"componentType":5126,
			"count":21052,
			"max":[
				0.5703945159912109,
				1.3178565502166748,
				0.26606953144073486
			],
			"min":[
				-0.5409632921218872,
				-1.3180874586105347,
				-0.2660691440105438
			],
			"type":"VEC3"
		},
		{
			"bufferView":40,
			"componentType":5126,
			"count":21052,
			"type":"VEC3"
		},
		{
			"bufferView":41,
			"componentType":5123,
			"count":108192,
			"type":"SCALAR"
		},
		{
			"bufferView":42,
			"componentType":5126,
			"count":19624,
			"max":[
				1.4927763938903809,
				2.7518630027770996,
				0.142595112323761
			],
			"min":[
				-2.667142868041992,
				-4.794205188751221,
				-0.8172080516815186
			],
			"type":"VEC3"
		},
		{
			"bufferView":43,
			"componentType":5126,
			"count":19624,
			"type":"VEC3"
		},
		{
			"bufferView":44,
			"componentType":5126,
			"count":19624,
			"type":"VEC2"
		},
		{
			"bufferView":45,
			"componentType":5123,
			"count":115104,
			"type":"SCALAR"
		},
		{
			"bufferView":46,
			"componentType":5126,
			"count":870,
			"max":[
				1.0373376607894897,
				1.1993955373764038,
				0.2263610064983368
			],
			"min":[
				-1.0373376607894897,
				0.7868643999099731,
				-0.18620087206363678
			],
			"type":"VEC3"
		},
		{
			"bufferView":47,
			"componentType":5126,
			"count":870,
			"type":"VEC3"
		},
		{
			"bufferView":48,
			"componentType":5126,
			"count":870,
			"type":"VEC2"
		},
		{
			"bufferView":49,
			"componentType":5123,
			"count":4992,
			"type":"SCALAR"
		},
		{
			"bufferView":50,
			"componentType":5126,
			"count":25,
			"max":[
				0.7810604572296143,
				1.1742024421691895,
				-0.018516480922698975
			],
			"min":[
				-0.604015588760376,
				0.32462623715400696,
				-0.018516480922698975
			],
			"type":"VEC3"
		},
		{
			"bufferView":51,
			"componentType":5126,
			"count":25,
			"type":"VEC3"
		},
		{
			"bufferView":52,
			"componentType":5126,
			"count":25,
			"type":"VEC2"
		},
		{
			"bufferView":53,
			"componentType":5123,
			"count":69,
			"type":"SCALAR"
		}
	],
	"bufferViews":[
		{
			"buffer":0,
			"byteLength":3024,
			"byteOffset":0,
			"target":34962
		},
		{
			"buffer":0,
			"byteLength":3024,
			"byteOffset":3024,
			"target":34962
		},
		{
			"buffer":0,
			"byteLength":2016,
			"byteOffset":6048,
			"target":34962
		},
		{
			"buffer":0,
			"byteLength":840,
			"byteOffset":8064,
			"target":34963
		},
		{
			"buffer":0,
			"byteLength":3024,
			"byteOffset":8904,
			"target":34962
		},
		{
			"buffer":0,
			"byteLength":3024,
			"byteOffset":11928,
			"target":34962
		},
		{
			"buffer":0,
			"byteLength":2016,
			"byteOffset":14952,
			"target":34962
		},
		{
			"buffer":0,
			"byteLength":9048,
			"byteOffset":16968,
			"target":34962
		},
		{
			"buffer":0,
			"byteLength":9048,
			"byteOffset":26016,
			"target":34962
		},
		{
			"buffer":0,
			"byteLength":6032,
			"byteOffset":35064,
			"target":34962
		},
		{
			"buffer":0,
			"byteLength":6192,
			"byteOffset":41096,
			"target":34963
		},
		{
			"buffer":0,
			"byteLength":10032,
			"byteOffset":47288,
			"target":34962
		},
		{
			"buffer":0,
			"byteLength":10032,
			"byteOffset":57320,
			"target":34962
		},
		{
			"buffer":0,
			"byteLength":6688,
			"byteOffset":67352,
			"target":34962
		},
		{
			"buffer":0,
			"byteLength":5880,
			"byteOffset":74040,
			"target":34963
		},
		{
			"buffer":0,
			"byteLength":504,
			"byteOffset":79920,
			"target":34962
		},
		{
			"buffer":0,
			"byteLength":504,
			"byteOffset":80424,
			"target":34962
		},
		{
			"buffer":0,
			"byteLength":336,
			"byteOffset":80928,
			"target":34962
		},
		{
			"buffer":0,
			"byteLength":240,
			"byteOffset":81264,
			"target":34963
		},
		{
			"buffer":0,
			"byteLength":3720,
			"byteOffset":81504,
			"target":34962
		},
		{
			"buffer":0,
			"byteLength":3720,
			"byteOffset":85224,
			"target":34962
		},
		{
			"buffer":0,
			"byteLength":2480,
			"byteOffset":88944,
			"target":34962
		},
		{
			"buffer":0,
			"byteLength":1560,
			"byteOffset":91424,
			"target":34963
		},
		{
			"buffer":0,
			"byteLength":1272,
			"byteOffset":92984,
			"target":34962
		},
		{
			"buffer":0,
			"byteLength":1272,
			"byteOffset":94256,
			"target":34962
		},
		{
			"buffer":0,
			"byteLength":848,
			"byteOffset":95528,
			"target":34962
		},
		{
			"buffer":0,
			"byteLength":552,
			"byteOffset":96376,
			"target":34963
		},
		{
			"buffer":0,
			"byteLength":1284,
			"byteOffset":96928,
			"target":34962
		},
		{
			"buffer":0,
			"byteLength":1284,
			"byteOffset":98212,
			"target":34962
		},
		{
			"buffer":0,
			"byteLength":856,
			"byteOffset":99496,
			"target":34962
		},
		{
			"buffer":0,
			"byteLength":552,
			"byteOffset":100352,
			"target":34963
		},
		{
			"buffer":0,
			"byteLength":360,
			"byteOffset":100904,
			"target":34962
		},
		{
			"buffer":0,
			"byteLength":360,
			"byteOffset":101264,
			"target":34962
		},
		{
			"buffer":0,
			"byteLength":240,
			"byteOffset":101624,
			"target":34962
		},
		{
			"buffer":0,
			"byteLength":84,
			"byteOffset":101864,
			"target":34963
		},
		{
			"buffer":0,
			"byteLength":2652,
			"byteOffset":101948,
			"target":34962
		},
		{
			"buffer":0,
			"byteLength":2652,
			"byteOffset":104600,
			"target":34962
		},
		{
			"buffer":0,
			"byteLength":1768,
			"byteOffset":107252,
			"target":34962
		},
		{
			"buffer":0,
			"byteLength":1104,
			"byteOffset":109020,
			"target":34963
		},
		{
			"buffer":0,
			"byteLength":252624,
			"byteOffset":110124,
			"target":34962
		},
		{
			"buffer":0,
			"byteLength":252624,
			"byteOffset":362748,
			"target":34962
		},
		{
			"buffer":0,
			"byteLength":216384,
			"byteOffset":615372,
			"target":34963
		},
		{
			"buffer":0,
			"byteLength":235488,
			"byteOffset":831756,
			"target":34962
		},
		{
			"buffer":0,
			"byteLength":235488,
			"byteOffset":1067244,
			"target":34962
		},
		{
			"buffer":0,
			"byteLength":156992,
			"byteOffset":1302732,
			"target":34962
		},
		{
			"buffer":0,
			"byteLength":230208,
			"byteOffset":1459724,
			"target":34963
		},
		{
			"buffer":0,
			"byteLength":10440,
			"byteOffset":1689932,
			"target":34962
		},
		{
			"buffer":0,
			"byteLength":10440,
			"byteOffset":1700372,
			"target":34962
		},
		{
			"buffer":0,
			"byteLength":6960,
			"byteOffset":1710812,
			"target":34962
		},
		{
			"buffer":0,
			"byteLength":9984,
			"byteOffset":1717772,
			"target":34963
		},
		{
			"buffer":0,
			"byteLength":300,
			"byteOffset":1727756,
			"target":34962
		},
		{
			"buffer":0,
			"byteLength":300,
			"byteOffset":1728056,
			"target":34962
		},
		{
			"buffer":0,
			"byteLength":200,
			"byteOffset":1728356,
			"target":34962
		},
		{
			"buffer":0,
			"byteLength":138,
			"byteOffset":1728556,
			"target":34963
		}
	],
	"samplers":[
		{
			"magFilter":9729,
			"minFilter":9987
		}
	],
	"buffers":[
		{
			"byteLength":1728696,
			"uri":"bmo.bin"
		}
	]
}
